<?xml version="1.0" encoding="utf-8"?>
<!-- Generator: Adobe Illustrator 15.1.0, SVG Export Plug-In . SVG Version: 6.00 Build 0)  -->
<!DOCTYPE svg PUBLIC "-//W3C//DTD SVG 1.1//EN" "http://www.w3.org/Graphics/SVG/1.1/DTD/svg11.dtd">
<svg version="1.1" id="Camada_1" xmlns="http://www.w3.org/2000/svg" xmlns:xlink="http://www.w3.org/1999/xlink" x="0px" y="0px"
	 width="592.63px" height="359px" viewBox="0 0 592.63 359" enable-background="new 0 0 592.63 359" xml:space="preserve">
<path fill="#67B1CD" d="M163,61.667"/>
<path fill="#67B1CD" d="M130.333,53.667"/>
<path fill="#42A6CE" d="M125.667,53.667c0,0,36-6,68,32.667c0,0,41.333,34,94,12C287,95.667,317,83,345,33
	c0-2.667,18.667-24.47,64.667-27.901c-0.667,0,37.334,3.901,52,53.235C462.333,59,463.667,99,517,85.667
	c-1.333,0,75.576-12.001,75.576,49.333c0,0.667,3.091,26.001-37.576,55.334c-1.333,1.333-26.667,14.666-24,55.333
	c-0.667,0.667,22.666,41.333,1.333,64c-0.666,1.333-9.999,30-60.666,16C470.333,325,414.999,301.666,376.333,305
	c-1.333-0.666-40.001-1.334-70,36C305,341.667,295.667,354.581,273,354.581c-2,0-25.333,0.42-47.333-24.247
	C222.333,330.334,187,307.666,171,317c2,1.334-50.667,41.333-84.667,28c1.333-0.666-34-14-34.667-53.333c-0.667,0,8-22.667,0-44.667
	c0-0.666-33.333-27.333-38-37.333c-1.333-0.667-17.333-34.667,0-52C13,159.667,41,137.667,41,137s6-0.667,22-38
	C63.667,98.333,87.667,55.667,125.667,53.667z"/>
<rect x="121" y="139" fill="none" width="372" height="123.334"/>
<text transform="matrix(1 0 0 1 121 185.6797)"><tspan x="0" y="0" fill="#EEE73E" font-family="'ComicSansMS'" font-size="60">Produtos do </tspan><tspan x="0" y="72" fill="#EEE73E" font-family="'ComicSansMS'" font-size="60">Bob Esponja</tspan></text>
</svg>
